<?xml version="1.0" encoding="UTF-8" standalone="no"?>
<svg xmlns:xlink="http://www.w3.org/1999/xlink" height="308.3px" width="277.5px" xmlns="http://www.w3.org/2000/svg">
  <g transform="matrix(1.0, 0.0, 0.0, 1.0, 0.0, 0.0)">
    <path d="M242.8 138.25 L245.2 138.6 Q291.75 149.25 271.25 199.95 L271.0 200.95 Q268.85 240.25 236.1 245.4 227.05 246.65 224.0 237.85 214.75 211.55 237.05 205.25 238.4 204.8 240.15 205.75 L242.85 200.95 243.4 200.05 243.45 199.95 Q249.6 184.6 246.95 168.05 247.85 158.1 235.55 176.35 L231.7 182.3 217.55 199.95 217.4 200.15 216.9 200.95 Q200.85 226.65 189.4 254.7 L188.45 257.0 187.5 258.5 185.8 261.0 Q181.2 267.65 181.25 267.9 181.75 269.7 181.2 271.65 179.05 278.75 183.8 284.1 210.45 301.15 191.8 306.6 173.15 312.0 166.0 300.15 158.8 288.3 157.7 274.0 156.4 257.55 142.4 264.7 137.55 267.05 140.25 279.15 141.7 310.85 121.65 306.7 101.6 302.5 106.1 295.0 110.6 287.5 116.4 284.9 122.15 282.3 122.2 279.65 L122.45 267.95 Q93.25 244.65 73.65 210.2 L73.25 209.45 73.2 209.45 73.65 210.2 Q61.1 207.75 53.6 200.95 L43.5 193.95 Q43.95 194.75 43.9 196.05 L42.6 200.95 Q27.6 227.35 40.8 234.95 51.75 241.25 56.75 243.7 L56.95 243.8 57.05 243.85 Q57.5 243.4 64.5 240.75 69.45 241.25 74.25 248.35 79.0 255.4 74.3 266.8 69.55 278.2 58.7 279.65 47.35 280.95 36.15 279.1 23.75 278.05 16.2 274.75 6.4 270.5 6.4 263.3 L6.25 258.9 Q5.9 254.6 4.9 250.5 -1.75 222.8 0.65 194.95 2.3 188.2 6.1 181.7 8.95 176.9 12.15 173.95 14.15 172.35 16.3 171.1 36.7 159.2 58.55 150.95 93.95 137.05 103.55 135.55 102.15 133.4 103.85 127.85 104.35 126.2 105.35 125.0 108.0 121.9 108.6 120.2 100.5 107.1 102.9 98.7 L97.1 87.65 Q89.9 74.05 88.25 31.3 86.55 -11.5 95.0 5.95 103.4 23.35 108.85 43.65 L116.7 72.9 Q124.0 62.35 138.75 64.6 142.45 63.1 142.4 61.65 141.8 50.25 144.15 31.45 146.45 12.65 153.45 2.95 160.45 -6.8 162.35 15.65 164.2 38.1 163.3 48.2 162.9 52.55 163.25 56.8 164.1 66.9 162.4 77.85 168.1 88.6 167.1 103.7 L166.6 107.4 Q166.3 109.1 165.65 110.1 L165.25 110.65 166.1 111.2 166.25 111.3 Q169.8 113.5 175.5 115.35 176.6 115.85 177.3 116.75 179.4 119.4 179.25 123.05 181.75 123.35 184.1 124.6 L187.7 124.45 Q189.95 123.2 193.15 123.25 L204.15 124.05 Q210.35 124.5 215.8 127.4 220.0 129.55 223.25 133.2 230.7 132.2 237.65 135.05 240.45 136.15 242.8 138.25 M219.2 180.0 L225.4 175.65 225.35 175.6 235.3 165.55 Q239.8 162.45 241.9 160.1 245.35 156.2 251.15 162.2 L251.95 163.2 Q260.95 179.95 254.75 199.95 L254.55 200.95 Q253.4 212.2 242.9 212.7 L232.9 211.7 Q234.25 219.7 228.85 224.3 230.4 248.1 247.45 230.6 256.25 221.5 260.45 209.25 L263.2 200.95 268.1 176.7 Q272.85 152.9 249.55 146.0 L228.85 142.95 228.75 142.95 225.8 142.5 226.0 144.35 Q226.45 149.7 225.85 154.35 225.35 157.85 224.3 161.0 L222.05 166.65 Q214.8 175.85 204.15 179.55 192.25 182.7 173.65 182.7 155.95 182.7 151.95 177.15 150.65 175.4 150.9 173.25 L151.4 171.3 151.4 167.2 Q152.0 164.2 155.15 164.2 L156.2 164.35 156.15 165.05 156.15 168.7 Q156.45 172.45 157.55 173.35 158.6 174.2 162.4 175.6 168.35 177.95 180.15 177.95 190.7 177.95 196.4 175.45 L196.1 175.6 209.55 171.1 Q221.55 164.65 222.65 153.85 223.75 143.0 219.25 138.85 214.95 134.25 204.15 133.4 L193.7 131.8 193.15 131.7 Q189.95 131.7 188.8 131.05 L187.85 130.5 186.95 130.15 183.3 128.75 Q180.8 127.8 178.95 127.8 177.4 127.8 175.85 128.9 L173.9 129.85 Q164.3 132.9 147.2 131.05 141.0 130.25 138.05 126.6 139.7 132.85 124.05 137.15 L115.1 140.05 Q91.25 147.35 80.95 149.7 65.15 154.35 66.3 167.75 67.4 181.2 72.0 188.6 L72.45 189.3 72.65 189.6 Q74.6 192.55 77.85 192.8 78.65 194.65 98.15 192.95 117.65 191.3 127.0 187.2 136.35 183.1 138.9 180.25 L140.15 180.2 Q143.75 180.2 143.9 184.45 143.9 189.0 133.65 192.7 119.8 197.7 92.65 197.7 L76.95 197.95 71.65 197.65 71.55 197.6 Q68.95 197.2 67.4 196.45 64.0 194.75 62.7 189.95 L62.6 189.45 Q61.7 186.0 61.5 179.95 58.5 159.5 64.25 157.0 48.5 162.35 35.3 168.35 26.4 172.3 20.45 179.95 L16.9 183.7 Q11.8 189.45 9.35 194.95 L8.4 197.55 Q5.3 207.1 8.65 218.8 L9.1 221.9 Q10.4 240.65 13.3 258.9 18.4 268.6 36.15 270.85 48.25 273.05 59.9 269.05 64.05 267.6 68.4 266.55 66.8 256.85 62.7 250.8 60.9 248.15 56.6 249.15 L56.65 249.15 52.9 249.65 Q43.85 250.2 36.15 245.5 32.2 242.35 30.4 236.85 29.1 232.9 29.15 228.1 L29.4 224.05 Q29.2 215.55 30.4 207.7 32.45 194.3 39.4 188.0 L42.4 188.35 42.95 188.3 44.1 188.4 45.15 188.2 Q55.65 188.2 67.65 200.4 L68.2 200.95 75.65 203.5 78.4 206.1 77.85 206.8 78.4 206.1 Q98.25 229.85 115.55 251.85 L119.55 256.95 123.15 261.55 Q124.2 262.9 127.55 265.5 130.0 268.0 130.35 272.0 130.75 276.2 130.3 280.45 129.75 285.95 125.8 288.95 121.45 291.55 115.85 291.6 110.2 291.65 109.65 295.65 109.1 299.6 109.9 299.75 126.1 307.95 131.7 297.35 137.25 286.75 136.15 277.1 135.05 267.45 134.45 266.1 134.8 262.2 137.0 259.5 138.4 257.7 140.65 256.45 L141.85 255.85 Q149.8 251.95 156.8 255.45 158.95 256.55 161.05 258.35 L161.6 258.85 Q164.75 261.75 164.55 268.65 164.35 275.55 166.65 290.15 168.95 304.65 185.2 301.25 201.4 297.8 187.35 293.65 185.35 292.35 181.45 287.2 177.55 282.05 176.8 274.3 176.45 271.05 179.7 264.65 182.1 258.35 183.75 255.6 183.65 252.5 183.95 249.5 184.25 246.55 185.0 243.7 186.1 239.35 188.1 235.1 196.4 217.75 205.85 200.95 L206.45 199.95 219.2 180.0 M149.6 117.8 Q149.35 116.3 150.65 114.2 155.15 110.6 160.45 111.7 159.85 106.4 160.15 102.35 160.75 94.7 159.25 87.3 156.3 72.75 141.1 72.05 136.75 71.6 132.75 73.2 116.75 79.85 112.25 96.85 109.6 106.7 115.75 115.1 117.55 117.5 118.05 119.8 118.2 120.4 119.85 122.45 L120.0 123.95 Q119.85 125.65 118.1 126.6 L113.65 128.75 Q109.7 130.7 111.2 135.05 L118.6 133.25 Q124.4 131.75 125.85 130.9 L133.15 126.7 Q130.9 126.7 128.95 125.45 128.15 125.0 127.7 124.35 127.05 123.5 127.05 122.3 127.05 121.25 127.2 120.35 128.25 114.25 136.15 114.15 137.7 114.15 138.95 115.15 L140.15 116.35 Q141.5 118.3 140.2 120.65 L139.2 122.05 Q137.15 124.5 137.35 125.65 145.2 124.5 150.2 125.6 161.65 127.7 171.15 122.2 162.35 122.25 153.8 120.8 149.95 120.0 149.6 117.8 M108.1 83.45 Q106.1 82.0 110.35 74.95 114.05 68.7 96.6 24.4 89.9 -2.3 94.75 37.4 99.6 77.05 107.35 86.8 L108.1 83.45 M141.55 98.05 Q142.7 96.2 144.3 96.2 145.9 96.2 147.05 98.05 148.2 99.85 148.2 102.45 148.2 105.05 147.05 106.9 145.9 108.7 144.3 108.7 142.7 108.7 141.55 106.9 140.4 105.05 140.4 102.45 140.4 99.85 141.55 98.05 M149.85 66.65 L155.15 69.8 Q161.3 28.2 155.15 17.2 147.85 5.35 149.85 66.65 M127.1 103.45 Q127.1 106.45 125.85 108.6 124.55 110.7 122.75 110.7 120.95 110.7 119.7 108.6 118.4 106.45 118.4 103.45 118.4 100.45 119.7 98.35 120.95 96.2 122.75 96.2 124.55 96.2 125.85 98.35 127.1 100.45 127.1 103.45 M41.35 192.4 L41.2 192.3 41.15 192.35 41.35 192.4" fill="#000000" fill-rule="evenodd" stroke="none"/>
    <path d="M222.05 166.65 L224.3 161.0 Q225.35 157.85 225.85 154.35 226.45 149.7 226.0 144.35 L225.8 142.5 228.75 142.95 228.85 142.95 249.55 146.0 Q272.85 152.9 268.1 176.7 L263.2 200.95 260.45 209.25 Q256.25 221.5 247.45 230.6 230.4 248.1 228.85 224.3 234.25 219.7 232.9 211.7 L242.9 212.7 Q253.4 212.2 254.55 200.95 L254.75 199.95 Q260.95 179.95 251.95 163.2 L251.15 162.2 Q245.35 156.2 241.9 160.1 239.8 162.45 235.3 165.55 L225.35 175.6 225.4 175.65 219.2 180.0 Q221.1 176.15 221.6 172.3 L222.05 166.65 M185.0 243.7 Q184.25 246.55 183.95 249.5 183.65 252.5 183.75 255.6 182.1 258.35 179.7 264.65 176.45 271.05 176.8 274.3 177.55 282.05 181.45 287.2 185.35 292.35 187.35 293.65 201.4 297.8 185.2 301.25 168.95 304.65 166.65 290.15 164.35 275.55 164.55 268.65 164.75 261.75 161.6 258.85 L161.05 258.35 Q158.95 256.55 156.8 255.45 162.35 254.75 166.9 253.1 170.85 251.6 173.5 249.75 L185.0 243.7 M141.85 255.85 L140.65 256.45 Q138.4 257.7 137.0 259.5 134.8 262.2 134.45 266.1 135.05 267.45 136.15 277.1 137.25 286.75 131.7 297.35 126.1 307.95 109.9 299.75 109.1 299.6 109.65 295.65 110.2 291.65 115.85 291.6 121.45 291.55 125.8 288.95 129.75 285.95 130.3 280.45 130.75 276.2 130.35 272.0 130.0 268.0 127.55 265.5 124.2 262.9 123.15 261.55 L119.55 256.95 115.55 251.85 116.65 251.7 Q118.6 251.7 120.7 252.35 L125.25 253.85 Q131.3 255.45 141.85 255.85 M78.4 206.1 L75.65 203.5 68.2 200.95 67.65 200.4 Q55.65 188.2 45.15 188.2 L44.1 188.4 42.95 188.3 42.4 188.35 39.4 188.0 Q32.45 194.3 30.4 207.7 29.2 215.55 29.4 224.05 L29.15 228.1 Q29.1 232.9 30.4 236.85 32.2 242.35 36.15 245.5 43.85 250.2 52.9 249.65 L56.65 249.15 56.6 249.15 Q60.9 248.15 62.7 250.8 66.8 256.85 68.4 266.55 64.05 267.6 59.9 269.05 48.25 273.05 36.15 270.85 18.4 268.6 13.3 258.9 10.4 240.65 9.1 221.9 L8.65 218.8 Q5.3 207.1 8.4 197.55 L9.35 194.95 Q11.8 189.45 16.9 183.7 L20.45 179.95 Q26.4 172.3 35.3 168.35 48.5 162.35 64.25 157.0 58.5 159.5 61.5 179.95 61.7 186.0 62.6 189.45 L62.7 189.95 Q64.0 194.75 67.4 196.45 68.95 197.2 71.55 197.6 L71.6 197.65 71.6 197.7 71.65 197.75 76.25 203.4 78.5 205.95 78.4 206.1 M108.1 83.45 L107.35 86.8 Q99.6 77.05 94.75 37.4 89.9 -2.3 96.6 24.4 114.05 68.7 110.35 74.95 106.1 82.0 108.1 83.45 M120.0 123.95 L119.85 122.45 Q118.2 120.4 118.05 119.8 117.55 117.5 115.75 115.1 109.6 106.7 112.25 96.85 116.75 79.85 132.75 73.2 136.75 71.6 141.1 72.05 156.3 72.75 159.25 87.3 160.75 94.7 160.15 102.35 159.85 106.4 160.45 111.7 155.15 110.6 150.65 114.2 149.35 116.3 149.6 117.8 L140.2 120.65 Q141.5 118.3 140.15 116.35 L138.95 115.15 Q137.7 114.15 136.15 114.15 128.25 114.25 127.2 120.35 127.05 121.25 127.05 122.3 127.05 123.5 127.7 124.35 L127.65 124.35 120.0 123.95 M127.1 103.45 Q127.1 100.45 125.85 98.35 124.55 96.2 122.75 96.2 120.95 96.2 119.7 98.35 118.4 100.45 118.4 103.45 118.4 106.45 119.7 108.6 120.95 110.7 122.75 110.7 124.55 110.7 125.85 108.6 127.1 106.45 127.1 103.45 M149.85 66.65 Q147.85 5.35 155.15 17.2 161.3 28.2 155.15 69.8 L149.85 66.65 M141.55 98.05 Q140.4 99.85 140.4 102.45 140.4 105.05 141.55 106.9 142.7 108.7 144.3 108.7 145.9 108.7 147.05 106.9 148.2 105.05 148.2 102.45 148.2 99.85 147.05 98.05 145.9 96.2 144.3 96.2 142.7 96.2 141.55 98.05 M41.35 192.4 L41.15 192.35 41.2 192.3 41.35 192.4" fill="#00ff00" fill-rule="evenodd" stroke="none"/>
    <path d="M219.2 180.0 L206.45 199.95 205.85 200.95 Q196.4 217.75 188.1 235.1 186.1 239.35 185.0 243.7 L173.5 249.75 Q170.85 251.6 166.9 253.1 162.35 254.75 156.8 255.45 149.8 251.95 141.85 255.85 131.3 255.45 125.25 253.85 L120.7 252.35 Q118.6 251.7 116.65 251.7 L115.55 251.85 Q98.25 229.85 78.4 206.1 L77.85 206.8 78.4 206.1 78.5 205.95 76.25 203.4 71.65 197.75 71.65 197.65 76.95 197.95 92.65 197.7 Q119.8 197.7 133.65 192.7 143.9 189.0 143.9 184.45 143.75 180.2 140.15 180.2 L138.9 180.25 Q136.35 183.1 127.0 187.2 117.65 191.3 98.15 192.95 78.65 194.65 77.85 192.8 74.6 192.55 72.65 189.6 L72.45 189.3 72.0 188.6 Q67.4 181.2 66.3 167.75 65.15 154.35 80.95 149.7 91.25 147.35 115.1 140.05 L124.05 137.15 Q139.7 132.85 138.05 126.6 141.0 130.25 147.2 131.05 164.3 132.9 173.9 129.85 L175.85 128.9 Q177.4 127.8 178.95 127.8 180.8 127.8 183.3 128.75 L186.95 130.15 187.85 130.5 188.8 131.05 Q189.95 131.7 193.15 131.7 L193.7 131.8 204.15 133.4 Q214.95 134.25 219.25 138.85 223.75 143.0 222.65 153.85 221.55 164.65 209.55 171.1 L196.1 175.6 196.4 175.45 Q190.7 177.95 180.15 177.95 168.35 177.95 162.4 175.6 158.6 174.2 157.55 173.35 156.45 172.45 156.15 168.7 L156.15 165.05 156.2 164.35 155.15 164.2 Q152.0 164.2 151.4 167.2 L151.4 171.3 150.9 173.25 Q150.65 175.4 151.95 177.15 155.95 182.7 173.65 182.7 192.25 182.7 204.15 179.55 214.8 175.85 222.05 166.65 L221.6 172.3 Q221.1 176.15 219.2 180.0 M149.6 117.8 Q149.95 120.0 153.8 120.8 162.35 122.25 171.15 122.2 161.65 127.7 150.2 125.6 145.2 124.5 137.35 125.65 137.15 124.5 139.2 122.05 L140.2 120.65 149.6 117.8 M127.7 124.35 Q128.15 125.0 128.95 125.45 130.9 126.7 133.15 126.7 L125.85 130.9 Q124.4 131.75 118.6 133.25 L111.2 135.05 Q109.7 130.7 113.65 128.75 L118.1 126.6 Q119.85 125.65 120.0 123.95 L127.65 124.35 127.7 124.35 M199.7 173.45 Q201.85 172.1 200.75 172.45 L199.7 173.45" fill="#dfffca" fill-rule="evenodd" stroke="none"/>
  </g>
</svg>
